<?xml version="1.0" ?><svg enable-background="new 0 0 512 512" id="Layer_1" version="1.1" viewBox="0 0 512 512" xml:space="preserve" xmlns="http://www.w3.org/2000/svg" xmlns:xlink="http://www.w3.org/1999/xlink"><g><g><linearGradient gradientUnits="userSpaceOnUse" id="SVGID_1_" x1="-0.0000027" x2="512" y1="256" y2="256"><stop offset="0" style="stop-color:#33B49D"/><stop offset="1" style="stop-color:#00A185"/></linearGradient><circle cx="256" cy="256" fill="url(#SVGID_1_)" r="256"/><linearGradient gradientUnits="userSpaceOnUse" id="SVGID_2_" x1="42.6666641" x2="469.3333435" y1="256.0005188" y2="256.0005188"><stop offset="0" style="stop-color:#00A185"/><stop offset="1" style="stop-color:#33B49D"/></linearGradient><path d="M256,469.3338623c-117.6315308,0-213.3333435-95.7018738-213.3333435-213.3333435    c0-117.6309204,95.7018051-213.333313,213.3333435-213.333313c117.6362,0,213.3333435,95.7024002,213.3333435,213.333313    C469.3333435,373.6319885,373.6362,469.3338623,256,469.3338623z" fill="url(#SVGID_2_)"/></g><g><ellipse cx="329.2612915" cy="246.9665375" opacity="0.3" rx="54.6640015" ry="34.4493332"/><path d="M329.2623291,291.4117432c-22.1621094,0-41.3482666-7.3173523-52.9472046-18.6794739    c-1.0810547,2.7018738-1.717804,5.5151978-1.717804,8.4293213c0,19.0250854,24.4740906,34.4490662,54.6639404,34.4490662    c30.1898804,0,54.6640625-15.4239807,54.6640625-34.4490662c0-2.9130554-0.6368408-5.7258606-1.7168579-8.4288025    C370.6090088,284.095459,351.4234009,291.4117432,329.2623291,291.4117432z" opacity="0.3"/><path d="M329.2623291,325.6064148c-22.1621094,0-41.3482666-7.316803-52.9472046-18.6794739    c-1.0810547,2.7018738-1.717804,5.5151978-1.717804,8.4298706c0,19.0245361,24.4740906,34.4485168,54.6639404,34.4485168    c30.1898804,0,54.6640625-15.4239807,54.6640625-34.4485168c0-2.9130859-0.6368408-5.7269592-1.7168579-8.4288025    C370.6090088,318.2906799,351.4234009,325.6064148,329.2623291,325.6064148z" opacity="0.3"/><path d="M329.2623291,359.8016052c-22.1621094,0-41.3482666-7.316803-52.9472046-18.6794739    c-1.0810547,2.7018738-1.717804,5.514679-1.717804,8.4293213C274.5973206,368.5765381,299.0714111,384,329.261261,384    c30.1898804,0,54.6640625-15.4234619,54.6640625-34.4485474c0-2.9130554-0.6368408-5.7263794-1.7168579-8.4282532    C370.6090088,352.485321,351.4234009,359.8016052,329.2623291,359.8016052z" opacity="0.3"/><ellipse cx="198.7390289" cy="178.4498596" opacity="0.3" rx="54.6637611" ry="34.4496002"/><path d="M198.7396698,222.894928c-22.1621246,0-41.3482666-7.3167877-52.9476776-18.6799927    c-1.0805817,2.7023926-1.7168579,5.5157318-1.7168579,8.4298706c0,19.0250549,24.4736023,34.4485321,54.6640015,34.4485321    c30.1893311,0,54.6635284-15.4234772,54.6635284-34.4485321c0-2.9125366-0.6368561-5.7264099-1.7173309-8.4282684    C240.0858002,215.5791931,220.9007416,222.894928,198.7396698,222.894928z" opacity="0.3"/><path d="M198.7396698,257.0901184c-22.1621246,0-41.3482666-7.3173218-52.9476776-18.6799927    c-1.0805817,2.7024078-1.7168579,5.515213-1.7168579,8.4298706c0,19.0250854,24.4736023,34.4485474,54.6640015,34.4485474    c30.1893311,0,54.6635284-15.4234619,54.6635284-34.4485474c0-2.9135895-0.6368561-5.7263947-1.7173309-8.4282684    C240.0858002,249.7738647,220.9007416,257.0901184,198.7396698,257.0901184z" opacity="0.3"/><path d="M198.7396698,291.28479c-22.1621246,0-41.3482666-7.3173218-52.9476776-18.6799927    c-1.0805817,2.7023926-1.7168579,5.5157471-1.7168579,8.4303894c0,19.0250854,24.4736023,34.4485474,54.6640015,34.4485474    c30.1893311,0,54.6635284-15.4234619,54.6635284-34.4485474c0-2.9135742-0.6368561-5.7263794-1.7173309-8.428772    C240.0858002,283.9690552,220.9007416,291.28479,198.7396698,291.28479z" opacity="0.3"/><path d="M198.7396698,325.4794617c-22.1621246,0-41.3482666-7.316803-52.9476776-18.6794739    c-1.0805817,2.7018738-1.7168579,5.5157471-1.7168579,8.4298706c0,19.0245361,24.4736023,34.4485474,54.6640015,34.4485474    c30.1893311,0,54.6635284-15.4240112,54.6635284-34.4485474c0-2.9130554-0.6368561-5.7263794-1.7173309-8.4288025    C240.0858002,318.1637268,220.9007416,325.4794617,198.7396698,325.4794617z" opacity="0.3"/><path d="M198.7396698,359.6746826c-22.1621246,0-41.3482666-7.3173523-52.9476776-18.6794739    c-1.0805817,2.7018738-1.7168579,5.5146484-1.7168579,8.4293213c0,19.0250854,24.4736023,34.4490662,54.6640015,34.4490662    c30.1893311,0,54.6635284-15.4239807,54.6635284-34.4490662c0-2.9130554-0.6368561-5.7258606-1.7173309-8.4282532    C240.0858002,352.3583984,220.9007416,359.6746826,198.7396698,359.6746826z" opacity="0.3"/></g><g><ellipse cx="321.2612915" cy="238.9665375" fill="#FFFFFF" rx="54.6640015" ry="34.4493332"/><path d="M321.2623291,283.4117432c-22.1621094,0-41.3482666-7.3173523-52.9472046-18.6794739    c-1.0810547,2.7018738-1.717804,5.5151978-1.717804,8.4293213c0,19.0250854,24.4740906,34.4490662,54.6639404,34.4490662    c30.1898804,0,54.6640625-15.4239807,54.6640625-34.4490662c0-2.9130554-0.6368408-5.7258606-1.7168579-8.4288025    C362.6090088,276.095459,343.4234009,283.4117432,321.2623291,283.4117432z" fill="#FFFFFF"/><path d="M321.2623291,317.6064148c-22.1621094,0-41.3482666-7.316803-52.9472046-18.6794739    c-1.0810547,2.7018738-1.717804,5.5151978-1.717804,8.4298706c0,19.0245361,24.4740906,34.4485168,54.6639404,34.4485168    c30.1898804,0,54.6640625-15.4239807,54.6640625-34.4485168c0-2.9130859-0.6368408-5.7269592-1.7168579-8.4288025    C362.6090088,310.2906799,343.4234009,317.6064148,321.2623291,317.6064148z" fill="#FFFFFF"/><path d="M321.2623291,351.8016052c-22.1621094,0-41.3482666-7.316803-52.9472046-18.6794739    c-1.0810547,2.7018738-1.717804,5.514679-1.717804,8.4293213C266.5973206,360.5765381,291.0714111,376,321.261261,376    c30.1898804,0,54.6640625-15.4234619,54.6640625-34.4485474c0-2.9130554-0.6368408-5.7263794-1.7168579-8.4282532    C362.6090088,344.485321,343.4234009,351.8016052,321.2623291,351.8016052z" fill="#FFFFFF"/><ellipse cx="190.7390289" cy="170.4498596" fill="#FFFFFF" rx="54.6637611" ry="34.4496002"/><path d="M190.7396698,214.894928c-22.1621246,0-41.3482666-7.3167877-52.9476776-18.6799927    c-1.0805817,2.7023926-1.7168579,5.5157318-1.7168579,8.4298706c0,19.0250549,24.4736023,34.4485321,54.6640015,34.4485321    c30.1893311,0,54.6635284-15.4234772,54.6635284-34.4485321c0-2.9125366-0.6368561-5.7264099-1.7173309-8.4282684    C232.0858002,207.5791931,212.9007416,214.894928,190.7396698,214.894928z" fill="#FFFFFF"/><path d="M190.7396698,249.0901337c-22.1621246,0-41.3482666-7.317337-52.9476776-18.6800079    c-1.0805817,2.7024078-1.7168579,5.515213-1.7168579,8.4298706c0,19.0250854,24.4736023,34.4485474,54.6640015,34.4485474    c30.1893311,0,54.6635284-15.4234619,54.6635284-34.4485474c0-2.9135895-0.6368561-5.7263947-1.7173309-8.4282684    C232.0858002,241.7738647,212.9007416,249.0901337,190.7396698,249.0901337z" fill="#FFFFFF"/><path d="M190.7396698,283.28479c-22.1621246,0-41.3482666-7.3173218-52.9476776-18.6799927    c-1.0805817,2.7023926-1.7168579,5.5157471-1.7168579,8.4303894c0,19.0250854,24.4736023,34.4485474,54.6640015,34.4485474    c30.1893311,0,54.6635284-15.4234619,54.6635284-34.4485474c0-2.9135742-0.6368561-5.7263794-1.7173309-8.428772    C232.0858002,275.9690552,212.9007416,283.28479,190.7396698,283.28479z" fill="#FFFFFF"/><path d="M190.7396698,317.4794617c-22.1621246,0-41.3482666-7.316803-52.9476776-18.6794739    c-1.0805817,2.7018738-1.7168579,5.5157471-1.7168579,8.4298706c0,19.0245361,24.4736023,34.4485474,54.6640015,34.4485474    c30.1893311,0,54.6635284-15.4240112,54.6635284-34.4485474c0-2.9130554-0.6368561-5.7263794-1.7173309-8.4288025    C232.0858002,310.1637268,212.9007416,317.4794617,190.7396698,317.4794617z" fill="#FFFFFF"/><path d="M190.7396698,351.6746826c-22.1621246,0-41.3482666-7.3173523-52.9476776-18.6794739    c-1.0805817,2.7018738-1.7168579,5.5146484-1.7168579,8.4293213c0,19.0250854,24.4736023,34.4490662,54.6640015,34.4490662    c30.1893311,0,54.6635284-15.4239807,54.6635284-34.4490662c0-2.9130554-0.6368561-5.7258606-1.7173309-8.4282532    C232.0858002,344.3583984,212.9007416,351.6746826,190.7396698,351.6746826z" fill="#FFFFFF"/></g></g></svg>