<?xml version="1.0" ?><!DOCTYPE svg  PUBLIC '-//W3C//DTD SVG 1.1//EN'  'http://www.w3.org/Graphics/SVG/1.1/DTD/svg11.dtd'><svg enable-background="new 0 0 96 96" height="96px" id="Layer_1" version="1.1" viewBox="0 0 96 96" width="96px" xml:space="preserve" xmlns="http://www.w3.org/2000/svg" xmlns:xlink="http://www.w3.org/1999/xlink"><g><path clip-rule="evenodd" d="M48,94.871C22.114,94.871,1.128,73.887,1.128,48   C1.128,22.114,22.114,1.129,48,1.129c25.887,0,46.871,20.985,46.871,46.871C94.871,73.887,73.887,94.871,48,94.871" fill="#4FA7A0" fill-rule="evenodd"/><path clip-rule="evenodd" d="M56.721,68.748c1.486-0.637,2.897-1.422,4.213-2.336l0.627-0.435   l-0.039,0.761l-0.396,7.729c-0.008,0.149-0.041,0.293-0.096,0.421c-0.059,0.137-0.141,0.26-0.24,0.359h-0.002   c-0.093,0.092-0.203,0.167-0.326,0.219c-0.119,0.049-0.25,0.077-0.385,0.077h-6.867c-0.131,0-0.258-0.027-0.373-0.075l-0.002-0.002   c-0.121-0.051-0.229-0.123-0.316-0.212c-0.102-0.102-0.186-0.228-0.248-0.369v-0.001c-0.059-0.136-0.096-0.283-0.109-0.437   l-0.328-3.869l-0.028-0.33l0.327-0.066C53.723,69.858,55.259,69.374,56.721,68.748 M42.999,25.106l0.395-0.086   c0,0.155,0,0.31,0,0.465c0,0.004,0,0.008,0,0.013V25.5l0.395-0.085c0,0.155,0,0.31,0,0.464c0,0.004,0,0.009,0,0.013v0.003   l0.395-0.085c0,0.155,0,0.31,0,0.464c0,0.004,0,0.009,0,0.013v0.003l0.395-0.086c0,0.155,0,0.31,0,0.465c0,0.004,0,0.008,0,0.013   v0.003l0.395-0.085c0,0.155,0,0.31,0,0.464c0,0.004,0,0.009,0,0.013v0.003l0.395-0.085c0,0.155,0,0.31,0,0.464   c0,0.004,0,0.009,0,0.013v0.003l0.395-0.086c0,0.155,0,0.31,0,0.465c0,0.004,0,0.008,0,0.013v0.003l0.395-0.086   c0,0.155,0,0.31,0,0.465c0,0.004,0,0.008,0,0.013v0.003l0.395-0.085v0.204c-0.388-0.03-0.761-0.108-1.108-0.228   c-0.469-0.161-0.894-0.396-1.25-0.685c-0.379-0.309-0.685-0.679-0.891-1.09C43.108,25.991,42.999,25.561,42.999,25.106z    M36.641,23.357c0.134,0.125,0.263,0.254,0.387,0.386l0.008,0.008c0.134,0.126,0.263,0.255,0.387,0.387l0.008,0.008   c0.134,0.125,0.263,0.255,0.387,0.387l0.008,0.008c0.134,0.125,0.263,0.254,0.387,0.386l0.008,0.008   c0.134,0.126,0.263,0.255,0.387,0.387l0.009,0.009c0.134,0.125,0.262,0.254,0.386,0.386l0.008,0.009l0.055,0.051l-0.003,0.001   l-0.02,0.008l-0.019,0.01l-0.032,0.017l0,0c-0.155,0.077-0.327,0.084-0.477,0.034c-0.151-0.05-0.284-0.159-0.36-0.313v-0.001   c-0.198-0.398-0.426-0.783-0.681-1.15C37.224,24.025,36.945,23.681,36.641,23.357z M32.222,30.496l-0.138-0.144l-0.123-0.118   c-0.093-0.091-0.185-0.184-0.273-0.279l-0.122-0.116c-0.092-0.09-0.183-0.183-0.271-0.276l-0.124-0.119   c-0.092-0.09-0.183-0.183-0.271-0.276l-0.124-0.119c-0.093-0.09-0.183-0.183-0.271-0.276l-0.124-0.119   c-0.092-0.09-0.183-0.183-0.271-0.276l-0.124-0.119c-0.092-0.09-0.183-0.183-0.271-0.276l-0.124-0.119   c-0.093-0.09-0.183-0.183-0.271-0.276l-0.124-0.119c-0.092-0.09-0.183-0.183-0.271-0.276c0.507,0.476,1.078,0.902,1.707,1.266l0,0   l0.038,0.024l0.011,0.007c0.43,0.244,0.875,0.452,1.327,0.621c0.466,0.174,0.935,0.308,1.401,0.401   c0.485,0.097,0.982,0.154,1.482,0.171c0.499,0.017,0.998-0.007,1.491-0.07c0.17-0.022,0.334,0.028,0.46,0.126   c0.125,0.097,0.214,0.243,0.235,0.411v0.001c0.021,0.17-0.029,0.334-0.126,0.46c-0.097,0.125-0.243,0.215-0.412,0.236h-0.001   c-0.558,0.071-1.125,0.099-1.692,0.079h-0.002c-0.559-0.02-1.122-0.085-1.679-0.196v-0.001c-0.202-0.041-0.39-0.083-0.563-0.128   C32.475,30.569,32.348,30.534,32.222,30.496z M30.706,45.528l-0.246-0.016c-0.012-0.104-0.024-0.207-0.036-0.311l-0.006-0.062   l-0.041-0.002c-0.104-0.007-0.208-0.014-0.313-0.021c-0.012-0.104-0.024-0.207-0.036-0.31l-0.006-0.062l-0.041-0.003   c-0.104-0.007-0.208-0.013-0.312-0.02c-0.012-0.104-0.024-0.207-0.037-0.311l-0.006-0.062l-0.041-0.002   c-0.104-0.007-0.208-0.014-0.312-0.021c-0.012-0.104-0.024-0.207-0.036-0.311l-0.006-0.062l-0.04-0.002   c-0.104-0.007-0.208-0.014-0.313-0.021c-0.012-0.104-0.024-0.207-0.036-0.311l-0.006-0.061l-0.041-0.003   c-0.104-0.007-0.208-0.014-0.312-0.02c-0.012-0.104-0.024-0.207-0.037-0.311l-0.006-0.062l-0.041-0.002   c-0.104-0.007-0.208-0.014-0.312-0.021c-0.012-0.104-0.024-0.207-0.036-0.311l-0.006-0.062l-0.041-0.002   c-0.104-0.007-0.208-0.014-0.312-0.021c-0.012-0.104-0.024-0.207-0.036-0.311l-0.006-0.062l-0.041-0.002   c-0.104-0.007-0.208-0.014-0.312-0.02c-0.012-0.104-0.024-0.207-0.037-0.311l-0.006-0.062l-0.041-0.002   c-0.104-0.007-0.208-0.014-0.312-0.021c-0.012-0.104-0.024-0.207-0.036-0.311l-0.006-0.062l-0.041-0.002   c-0.104-0.007-0.208-0.014-0.312-0.021c-0.012-0.104-0.024-0.207-0.036-0.311l-0.006-0.062l0.002,0v0   c0.438,0.04,0.843,0.16,1.208,0.338c0.398,0.195,0.751,0.463,1.052,0.776c0.201,0.209,0.379,0.439,0.531,0.682   c0.157,0.249,0.287,0.513,0.387,0.78c0.021,0.057,0.042,0.115,0.061,0.172c0.02,0.062,0.038,0.12,0.053,0.173l0.117,0.423   l0.398-0.182c0.465-0.213,1.001-0.395,1.539-0.577l0.002,0c0.481-0.163,0.967-0.328,1.381-0.513   c0.457-0.204,0.823-0.437,1.001-0.723c0.104-0.166,0.175-0.285,0.257-0.421l0.003-0.006l0.001-0.001l0.008-0.015   c0.386-0.644,0.91-1.516,1.486-2.205l0.13-0.155l-0.06-0.194c-0.099-0.321-0.281-0.579-0.459-0.83l-0.004-0.004l0,0   c-0.208-0.294-0.415-0.584-0.55-0.95h0l-0.016-0.047l-0.003-0.007c-0.36-1.001-0.373-1.649-0.243-2.091   c0.12-0.409,0.383-0.66,0.584-0.85l0.004-0.004l0.004-0.004l0.054-0.051c0.124-0.12,0.286-0.178,0.446-0.175   c0.158,0.003,0.316,0.067,0.436,0.191c0.12,0.125,0.177,0.286,0.175,0.446c-0.003,0.158-0.068,0.316-0.191,0.436l-0.046,0.045   l-0.002,0.001l-0.016,0.015c-0.097,0.093-0.227,0.215-0.251,0.53c-0.017,0.216,0.03,0.547,0.222,1.082l0.004,0.012l0.014,0.034   h-0.001c0.084,0.229,0.237,0.445,0.392,0.663l0.003,0.004c0.077,0.108,0.155,0.218,0.226,0.326c0.07,0.106,0.139,0.216,0.201,0.332   l0.131,0.244l0.27-0.053c0.35-0.068,0.741-0.161,1.146-0.285c0.405-0.123,0.814-0.276,1.195-0.465   c0.362-0.179,0.701-0.391,0.984-0.64c0.297-0.262,0.537-0.568,0.682-0.922c0.065-0.158,0.189-0.276,0.336-0.337   c0.147-0.062,0.319-0.067,0.478-0.002s0.276,0.189,0.337,0.336C42.63,36.67,42.635,36.841,42.57,37   c-0.207,0.505-0.524,0.932-0.909,1.292c-0.392,0.367-0.86,0.668-1.358,0.916c-0.458,0.226-0.943,0.407-1.416,0.549   c-0.479,0.145-0.942,0.25-1.352,0.327c-0.45,0.085-1.409,1.678-1.991,2.648l-0.004,0.006l-0.283,0.468   c-0.022,0.035-0.045,0.071-0.069,0.105l0,0c-0.024,0.034-0.051,0.069-0.078,0.103l-0.352,0.44l0.543,0.153   c0.419,0.118,0.89,0.173,1.361,0.196c0.449,0.022,0.905,0.015,1.313,0.009v0.002h0.004l0.006-0.002l0.359-0.007l0.173-0.003v0.002   c0.173,0,0.329,0.069,0.442,0.182l0.002,0.001c0.112,0.113,0.181,0.27,0.181,0.442c0,0.173-0.07,0.329-0.183,0.442   c-0.113,0.113-0.269,0.183-0.442,0.183c-0.226,0-0.389,0.002-0.496,0.003H38.02h-0.017c-0.683,0.011-1.471,0.023-2.242-0.085   c-0.741-0.104-1.468-0.321-2.067-0.763l-0.169-0.125l-0.191,0.076c-0.191,0.076-0.373,0.143-0.547,0.204   c-0.191,0.067-0.379,0.131-0.567,0.195c-0.479,0.162-0.955,0.324-1.335,0.488v0.001C30.822,45.475,30.763,45.501,30.706,45.528z    M32.228,52.366l0.071-0.248l-0.103-0.027c-0.123-0.032-0.246-0.065-0.369-0.098l0.078-0.27l-0.104-0.027   c-0.123-0.033-0.246-0.065-0.369-0.099l0.078-0.269l-0.103-0.027c-0.123-0.033-0.246-0.066-0.37-0.099l0.078-0.27l0.091,0.024   v0.001c0.62,0.167,1.253,0.338,2.594-0.506c0.145-0.092,0.315-0.115,0.471-0.08c0.155,0.035,0.297,0.13,0.388,0.275   c0.092,0.146,0.115,0.315,0.08,0.471c-0.035,0.154-0.13,0.297-0.275,0.389c-0.915,0.576-1.591,0.802-2.143,0.852L32.228,52.366z    M68.609,21.531l26.258,26.145c0.001,0.108,0.004,0.215,0.004,0.324c0,24.119-18.218,43.979-41.643,46.58L34.115,75.414   c0.034,0.02,0.071,0.037,0.107,0.052c0.119,0.05,0.25,0.078,0.384,0.078h6.867c0.132,0,0.259-0.027,0.374-0.075v-0.002   c0.122-0.051,0.229-0.124,0.317-0.212l0-0.001c0.103-0.104,0.188-0.229,0.249-0.369c0.059-0.135,0.097-0.282,0.109-0.437   l0.328-3.87l0.028-0.329l-0.327-0.067c-0.979-0.2-1.939-0.461-2.875-0.778c-0.944-0.32-1.865-0.699-2.755-1.133l-0.159-0.078   l-0.069-0.071l-0.001-0.001l-0.005-0.005c-0.132-0.129-0.262-0.259-0.39-0.39l-0.01-0.011c-0.13-0.126-0.259-0.255-0.385-0.385   l-0.01-0.01c-0.13-0.127-0.259-0.255-0.385-0.385l-0.01-0.01c-0.13-0.127-0.258-0.255-0.385-0.385l-0.01-0.011   c-0.13-0.126-0.259-0.255-0.385-0.385l-0.01-0.01c-0.13-0.127-0.259-0.255-0.385-0.385l-0.01-0.01   c-0.13-0.127-0.258-0.255-0.385-0.385l-0.01-0.011c-0.13-0.126-0.259-0.255-0.385-0.385l-0.01-0.01   c-0.13-0.127-0.259-0.255-0.385-0.385l-0.006-0.006l-0.001-0.001c-0.129-0.126-0.256-0.254-0.382-0.382l-0.006-0.006l-0.002-0.002   c-0.135-0.132-0.268-0.265-0.398-0.399c-0.133-0.13-0.265-0.261-0.395-0.394c-0.132-0.13-0.264-0.261-0.393-0.394   c0.306,0.298,0.62,0.588,0.943,0.87l0.058,0.051l0.067,0.022c0.076,0.026,0.145,0.064,0.201,0.111l0,0.001   c0.06,0.051,0.11,0.111,0.147,0.179l0.035,0.065l0.057,0.046c0.674,0.551,1.383,1.064,2.123,1.537   c0.734,0.47,1.497,0.898,2.282,1.28l0,0.001c1.51,0.734,3.118,1.307,4.799,1.692c1.633,0.374,3.333,0.572,5.074,0.572   c2.651,0,5.2-0.458,7.566-1.299c2.454-0.871,4.713-2.156,6.693-3.769l0.063-0.052l0.036-0.074c0.039-0.078,0.094-0.147,0.158-0.201   h0.001c0.064-0.055,0.142-0.098,0.224-0.122l0.078-0.022l0.063-0.055c0.18-0.157,0.365-0.326,0.559-0.506   c0.207-0.194,0.389-0.368,0.539-0.519c5.402-5.403,7.686-13.127,6.15-20.58c-0.313-1.523-0.781-2.991-1.385-4.383   c-0.598-1.377-1.327-2.682-2.171-3.895c-0.853-1.227-1.827-2.369-2.905-3.406l-0.16-0.154l-0.212,0.067   c-0.179,0.057-0.36,0.109-0.54,0.156c-0.182,0.047-0.365,0.089-0.552,0.126c-0.558,0.111-1.12,0.177-1.679,0.196   c-0.568,0.02-1.137-0.007-1.694-0.079h-0.001c-0.169-0.021-0.314-0.11-0.412-0.236s-0.147-0.29-0.126-0.46v-0.001   c0.021-0.169,0.11-0.314,0.235-0.412c0.126-0.098,0.29-0.148,0.461-0.126c0.492,0.063,0.99,0.087,1.49,0.07s0.996-0.074,1.48-0.171   v-0.001c0.473-0.095,0.943-0.229,1.402-0.4c0.453-0.169,0.896-0.376,1.327-0.621l0.012-0.007l0.038-0.023l0,0   c0.68-0.393,1.292-0.86,1.83-1.385c0.553-0.54,1.028-1.143,1.42-1.789c0.344-0.565,0.623-1.161,0.834-1.774   c0.213-0.618,0.359-1.26,0.438-1.912L68.609,21.531z" fill="#38817B" fill-rule="evenodd"/><path d="   M56,25.246c0.826-1.657,2.137-3.104,3.863-4.1c3.007-1.736,6.549-1.695,9.416-0.206c-0.144,3.226-1.881,6.315-4.885,8.051   c-1.934,1.116-4.09,1.498-6.143,1.233" fill="none" stroke="#FFFFFF" stroke-linecap="round" stroke-linejoin="round" stroke-miterlimit="2.6131" stroke-width="1.9998"/><path d="   M38.714,25.253c-0.826-1.66-2.136-3.104-3.864-4.1c-3.006-1.736-6.55-1.695-9.416-0.208c0.144,3.231,1.88,6.317,4.886,8.053   c1.933,1.116,4.088,1.498,6.141,1.233" fill="none" stroke="#FFFFFF" stroke-linecap="round" stroke-linejoin="round" stroke-miterlimit="2.6131" stroke-width="1.9998"/><path d="   M51.119,23.896c1.695,0.277,3.33,0.737,4.881,1.363" fill="none" stroke="#FFFFFF" stroke-linecap="round" stroke-linejoin="round" stroke-miterlimit="2.6131" stroke-width="1.9998"/><path d="   M38.716,25.246c1.586-0.635,3.226-1.088,4.907-1.36" fill="none" stroke="#FFFFFF" stroke-linecap="round" stroke-linejoin="round" stroke-miterlimit="2.6131" stroke-width="1.9998"/><path d="   M63.213,29.86c4.523,4.237,7.352,10.265,7.352,16.952c0,12.828-10.396,23.224-23.223,23.224c-7.417,0-14.024-3.479-18.273-8.892   c-1.217-1.551-2.548-4.099-1.745-5.995c1.712-0.589,1.989-2.826,1.916-3.538c2.075-1.608,0.559-5.14-0.432-5.231   c1.201-1.154,0.02-4.354-2.397-4.57c-1.502,0.503-0.958-2.903-0.369-4.26c1.265-2.908,3.115-5.514,5.397-7.659" fill="none" stroke="#FFFFFF" stroke-linecap="round" stroke-linejoin="round" stroke-miterlimit="2.6131" stroke-width="1.9998"/><path d="   M47.347,48.926c5.454,0,9.875,3.063,9.875,6.841s-4.421,6.841-9.875,6.841c-5.455,0-9.875-3.063-9.875-6.841   S41.892,48.926,47.347,48.926" fill="none" stroke="#FFFFFF" stroke-linecap="round" stroke-linejoin="round" stroke-miterlimit="2.6131" stroke-width="1.9998"/><path d="   M43.846,54.254c0.837,0,1.517,0.682,1.517,1.518c0,0.839-0.68,1.518-1.517,1.518c-0.838,0-1.518-0.679-1.518-1.518   C42.328,54.936,43.008,54.254,43.846,54.254" fill="none" stroke="#FFFFFF" stroke-linecap="round" stroke-linejoin="round" stroke-miterlimit="2.6131" stroke-width="1.9998"/><path d="   M50.832,54.254c0.838,0,1.518,0.682,1.518,1.518c0,0.839-0.68,1.518-1.518,1.518s-1.518-0.679-1.518-1.518   C49.314,54.936,49.994,54.254,50.832,54.254" fill="none" stroke="#FFFFFF" stroke-linecap="round" stroke-linejoin="round" stroke-miterlimit="2.6131" stroke-width="1.9998"/><path d="   M50.945,39.07c0.518,0,0.937,0.419,0.937,0.938c0,0.516-0.419,0.935-0.937,0.935s-0.938-0.419-0.938-0.935   C50.008,39.49,50.428,39.07,50.945,39.07" fill="none" stroke="#FFFFFF" stroke-linecap="round" stroke-linejoin="round" stroke-miterlimit="2.6131" stroke-width="1.9998"/><path d="   M43.739,39.07c0.518,0,0.937,0.419,0.937,0.938c0,0.516-0.419,0.935-0.937,0.935c-0.519,0-0.937-0.419-0.937-0.935   C42.802,39.49,43.22,39.07,43.739,39.07" fill="none" stroke="#FFFFFF" stroke-linecap="round" stroke-linejoin="round" stroke-miterlimit="2.6131" stroke-width="1.9998"/><path d="   M42.277,65.544c1.366-1.393,3.303-2.227,5.42-2.176c1.945,0.043,3.732,0.74,5.064,1.879" fill="none" stroke="#FFFFFF" stroke-linecap="round" stroke-linejoin="round" stroke-miterlimit="2.6131" stroke-width="1.9998"/><line fill="none" stroke="#FFFFFF" stroke-linecap="round" stroke-linejoin="round" stroke-miterlimit="2.6131" stroke-width="1.9998" x1="43.543" x2="43.146" y1="69.813" y2="74.497"/><path d="   M43.146,74.497c-0.078,0.91-0.756,1.67-1.671,1.67" fill="none" stroke="#FFFFFF" stroke-linecap="round" stroke-linejoin="round" stroke-miterlimit="2.6131" stroke-width="1.9998"/><line fill="none" stroke="#FFFFFF" stroke-linecap="round" stroke-linejoin="round" stroke-miterlimit="2.6131" stroke-width="1.9998" x1="41.475" x2="34.608" y1="76.167" y2="76.167"/><path d="   M34.608,76.167c-0.913,0-1.625-0.752-1.672-1.67" fill="none" stroke="#FFFFFF" stroke-linecap="round" stroke-linejoin="round" stroke-miterlimit="2.6131" stroke-width="1.9998"/><line fill="none" stroke="#FFFFFF" stroke-linecap="round" stroke-linejoin="round" stroke-miterlimit="2.6131" stroke-width="1.9998" x1="32.936" x2="32.423" y1="74.497" y2="64.515"/><line fill="none" stroke="#FFFFFF" stroke-linecap="round" stroke-linejoin="round" stroke-miterlimit="2.6131" stroke-width="1.9998" x1="51.141" x2="51.539" y1="69.813" y2="74.497"/><path d="   M51.539,74.497c0.077,0.91,0.752,1.67,1.671,1.67" fill="none" stroke="#FFFFFF" stroke-linecap="round" stroke-linejoin="round" stroke-miterlimit="2.6131" stroke-width="1.9998"/><line fill="none" stroke="#FFFFFF" stroke-linecap="round" stroke-linejoin="round" stroke-miterlimit="2.6131" stroke-width="1.9998" x1="53.21" x2="60.078" y1="76.167" y2="76.167"/><path d="   M60.078,76.167c0.916,0,1.623-0.752,1.67-1.67" fill="none" stroke="#FFFFFF" stroke-linecap="round" stroke-linejoin="round" stroke-miterlimit="2.6131" stroke-width="1.9998"/><line fill="none" stroke="#FFFFFF" stroke-linecap="round" stroke-linejoin="round" stroke-miterlimit="2.6131" stroke-width="1.9998" x1="61.748" x2="62.262" y1="74.497" y2="64.492"/><line fill="none" stroke="#FFFFFF" stroke-linecap="round" stroke-linejoin="round" stroke-miterlimit="2.6131" stroke-width="1.9998" x1="51.064" x2="51.064" y1="23.944" y2="25.101"/><path d="   M51.064,25.101c0,1.469-1.479,2.669-3.281,2.669" fill="none" stroke="#FFFFFF" stroke-linecap="round" stroke-linejoin="round" stroke-miterlimit="2.6131" stroke-width="1.9998"/><line fill="none" stroke="#FFFFFF" stroke-linecap="round" stroke-linejoin="round" stroke-miterlimit="2.6131" stroke-width="1.9998" x1="47.783" x2="46.906" y1="27.77" y2="27.77"/><path d="   M46.906,27.77c-1.803,0-3.281-1.2-3.281-2.669" fill="none" stroke="#FFFFFF" stroke-linecap="round" stroke-linejoin="round" stroke-miterlimit="2.6131" stroke-width="1.9998"/><line fill="none" stroke="#FFFFFF" stroke-linecap="round" stroke-linejoin="round" stroke-miterlimit="2.6131" stroke-width="1.9998" x1="43.625" x2="43.625" y1="25.101" y2="23.944"/><path d="   M29.26,46.347c0.097-1.937,4.462-1.853,5.472-3.478c0.562-0.902,1.844-3.241,2.69-3.401c1.555-0.292,3.872-1,4.573-2.708" fill="none" stroke="#FFFFFF" stroke-linecap="round" stroke-linejoin="round" stroke-miterlimit="2.6131" stroke-width="1.9998"/><path d="   M36.715,39.814c-0.086-1.042-0.828-1.502-1.113-2.275c-0.636-1.729-0.043-2.115,0.229-2.387" fill="none" stroke="#FFFFFF" stroke-linecap="round" stroke-linejoin="round" stroke-miterlimit="2.6131" stroke-width="1.9998"/><path d="   M33.794,43.876c1.171,1.144,3.353,0.951,4.726,0.951" fill="none" stroke="#FFFFFF" stroke-linecap="round" stroke-linejoin="round" stroke-miterlimit="2.6131" stroke-width="1.9998"/><path d="   M29.364,51.508c1.775-0.534,2.162,1.113,4.769-0.529" fill="none" stroke="#FFFFFF" stroke-linecap="round" stroke-linejoin="round" stroke-miterlimit="2.6131" stroke-width="1.9998"/></g></svg>