<?xml version="1.0" encoding="UTF-8"?>
<svg width="95px" height="78px" viewBox="0 0 95 78" version="1.1" xmlns="http://www.w3.org/2000/svg" xmlns:xlink="http://www.w3.org/1999/xlink">
    <!-- Generator: Sketch 48.2 (47327) - http://www.bohemiancoding.com/sketch -->
    <title>TribancoDigital</title>
    <desc>Created with Sketch.</desc>
    <defs>
        <polygon id="path-1" points="0 0.109147126 14.9184381 0.109147126 14.9184381 16.9642966 0 16.9642966"></polygon>
        <polygon id="path-3" points="0 79 94.278 79 94.278 0.661057471 0 0.661057471"></polygon>
    </defs>
    <g id="Logina" stroke="none" stroke-width="1" fill="none" fill-rule="evenodd" transform="translate(-132.000000, -38.000000)">
        <g id="TribancoDigital" transform="translate(132.000000, 37.000000)">
            <path d="M56.9544073,1.03904267 L46.7327016,18.4248364 L55.6778116,1.06355784 L55.5812623,1.08898098 L45.4909709,18.4248364 L54.2215269,1.0735455 L54.1589487,1.06355784 L44.2340426,18.3857938 L52.9887359,1.02542314 L52.9064903,1.06355784 L42.9431432,18.3857938 L51.8051135,1.06355784 L51.7559449,1.02542314 L41.6611836,18.4992899 L50.5821563,1.03904267 L50.5142142,1.03904267 L40.3944216,18.3857938 L49.4950831,1.02542314 L49.4217772,1.01543548 L39.1526909,18.3857938 L48.1648489,1.02542314 L48.1210442,1.03904267 L37.8608976,18.3857938 L47.0625782,1.01543548 L46.9955301,1.0499383 L36.5217236,18.4992899 L45.7967102,1.0499383 L45.7627391,1 L35.3479349,18.3857938 L44.5782228,1.02542314 L44.4959771,1.01543548 L31.5869837,24.1032757 L27,24.1032757 L27.1653853,24.3048448 L46.2383336,24.6362536 L27.6838906,25.1737713 L27.7375291,25.3698927 L46.7282317,25.6958536 L28.3588414,26.3759225 L28.4705882,26.5729518 L47.3602718,26.8843853 L28.9944574,27.5535585 L29.0230645,27.6770423 L47.8930806,28.0611133 L29.5478276,28.5841036 L29.5773288,28.7557097 L48.6592169,29.1951668 L30.1986412,29.866156 L30.1745038,29.9941797 L49.1750402,30.3827905 L30.8056499,31.0092892 L30.9066691,31.1672759 L49.8008225,31.516844 L31.3920973,32.0243988 L31.329519,32.2069006 L50.450742,32.69448 L31.9839085,33.1929551 L31.9839085,33.3945242 L51.0532809,33.8584965 L32.6445557,34.2915978 L32.6928303,34.5086024 L51.7130341,34.9871022 L33.0611479,35.2240821 L33.1344538,35.3666333 L58.2015019,35.5191721 L60.5696406,40 L60.6125514,39.9555095 L51.6441981,21.8015738 L61.2830324,38.8314437 L61.3277311,38.7724257 L52.280708,20.6729681 L61.8069015,37.6783228 L61.8909351,37.5303238 L52.9547649,19.5489023 L62.5015198,36.6632133 L62.5444305,36.5152143 L53.6109422,18.380346 L63.0682997,35.4846693 L63.1523333,35.435639 L54.2841051,17.2571881 L63.83086,34.2770703 L63.8505274,34.1880893 L54.9116753,16.0686564 L64.4870374,33.1784276 L64.5299481,33.0594836 L55.5463973,14.9400508 L65.0538173,32.0243988 L65.1369569,31.9989756 L56.2070445,13.7669546 L65.733238,30.9902219 L65.733238,30.7432543 L56.8766315,12.6428887 L66.3161094,29.9042907 L66.3697479,29.7617396 L57.3665296,11.7013247 L66.8882532,28.9100645 L67,28.7311946 L54.6917576,5.22932042 L57.0509566,1 L56.9544073,1.03904267 Z M48.266762,16.7387377 L52.1635974,24.1078155 L44.1571607,24.1078155 L48.266762,16.7387377 Z" id="Fill-1" fill="#FEFEFE"></path>
            <g id="Group-20">
                <g id="Group-4" transform="translate(0.000000, 61.747126)">
                    <mask id="mask-2" fill="white">
                        <use xlink:href="#path-1"></use>
                    </mask>
                    <g id="Clip-3"></g>
                    <path d="M6.53310476,13.5981701 C9.31162857,13.5981701 11.5644857,11.3135264 11.5644857,8.52491724 C11.5644857,5.7354 9.31162857,3.47527356 6.53310476,3.47527356 L3.35377143,3.47527356 L3.35377143,13.5981701 L6.53310476,13.5981701 Z M6.53310476,0.109147126 C7.65862857,0.109147126 8.76153333,0.325262069 9.79205714,0.757491954 C10.7972476,1.19062989 11.6839143,1.79175632 12.4502476,2.56177931 C13.2410095,3.35541149 13.8399619,4.24438851 14.2471048,5.25413563 C14.7022,6.2884 14.9184381,7.3944 14.9184381,8.52491724 C14.9184381,9.67904368 14.7022,10.7841356 14.2471048,11.819308 C13.8399619,12.8281471 13.2410095,13.7180322 12.4502476,14.4871471 C11.6839143,15.2562621 10.7972476,15.8819057 9.79205714,16.2914345 C8.76153333,16.7481816 7.65862857,16.9642966 6.53310476,16.9642966 L2.29610476,16.9642966 L2.29610476,16.9397793 L-0.000180952381,16.9397793 L-0.000180952381,0.109147126 L6.53310476,0.109147126 Z" id="Fill-2" fill="#FEFEFE" mask="url(#mask-2)"></path>
                </g>
                <mask id="mask-4" fill="white">
                    <use xlink:href="#path-3"></use>
                </mask>
                <g id="Clip-6"></g>
                <polygon id="Fill-5" fill="#FEFEFE" mask="url(#mask-4)" points="18.167619 78.6867241 21.5215714 78.6867241 21.5215714 61.856092 18.167619 61.856092"></polygon>
                <path d="M41.7251762,68.3239218 L41.7251762,70.0310483 C41.7251762,75.3204161 37.8917,78.9998184 33.3877952,78.9998184 L33.3642714,78.9998184 C28.5482238,78.951692 24.7147476,75.080692 24.7636048,70.2471632 C24.8115571,65.462669 28.692081,61.6143701 33.4592714,61.6143701 L33.5316524,61.6143701 C35.5682714,61.6397954 37.4121762,62.361692 38.8742714,63.5385195 L36.4549381,65.9203241 C35.5917952,65.3173816 34.5857,65.0059218 33.5072238,64.9814046 L33.4592714,64.9814046 C32.0460333,64.9814046 30.7042714,65.5344046 29.6981762,66.5450598 C28.692081,67.5302897 28.1175571,68.8769218 28.1175571,70.2952897 C28.0940333,71.7136575 28.6441286,73.0838989 29.6267,74.094554 C30.6318905,75.1279103 31.9745571,75.7054276 33.3877952,75.7054276 C35.8315571,75.7054276 37.9161286,73.9501747 38.5395095,71.6900483 L34.0437476,71.6900483 L34.0437476,68.3239218 L41.7251762,68.3239218 Z" id="Fill-7" fill="#FEFEFE" mask="url(#mask-4)"></path>
                <polygon id="Fill-8" fill="#FEFEFE" mask="url(#mask-4)" points="44.9856667 78.6867241 48.339619 78.6867241 48.339619 61.856092 44.9856667 61.856092"></polygon>
                <polygon id="Fill-9" fill="#FEFEFE" mask="url(#mask-4)" points="86.1123429 75.3452966 94.277819 75.3452966 94.277819 78.6869057 82.7583905 78.6869057 82.7583905 61.8562736 86.1123429 61.8562736"></polygon>
                <polygon id="Fill-10" fill="#FEFEFE" mask="url(#mask-4)" points="64.6455095 61.8558195 64.6455095 65.221946 59.5381286 65.221946 59.5381286 78.710969 56.1841762 78.710969 56.1841762 65.221946 50.9944619 65.221946 50.9944619 61.8558195"></polygon>
                <polygon id="Fill-11" fill="#FEFEFE" mask="url(#mask-4)" points="72.5745714 61.8558195 80.5048095 78.710969 76.7916667 78.710969 71.9991429 68.4673023 66.800381 78.710969 63.0392857 78.710969 71.592 61.8558195"></polygon>
                <polygon id="Fill-12" fill="#FEFEFE" mask="url(#mask-4)" points="18.7774286 47.3386161 18.7774286 49.3372253 16.0179048 49.3372253 16.0179048 57.3461908 14.0265238 57.3461908 14.0265238 49.3372253 11.2534286 49.3372253 11.2534286 47.3386161"></polygon>
                <path d="M22.6164238,49.3232414 L22.6164238,51.3354713 L25.2673762,51.3354713 C25.8219952,51.3354713 26.2626143,50.8932529 26.2626143,50.3366207 C26.2626143,49.7799885 25.8219952,49.3232414 25.2673762,49.3232414 L22.6164238,49.3232414 Z M26.3621381,57.3458276 L24.4983286,53.3340805 L22.6164238,53.3340805 L22.6164238,57.3303908 L20.6250429,57.3303908 L20.6250429,47.3246322 L25.2673762,47.3246322 C26.9167571,47.3246322 28.2530905,48.6803448 28.2530905,50.3366207 C28.2530905,51.5497701 27.5419476,52.5922069 26.5041857,53.0625747 L28.4810905,57.3458276 L26.3621381,57.3458276 Z" id="Fill-13" fill="#FEFEFE" mask="url(#mask-4)"></path>
                <polygon id="Fill-14" fill="#FEFEFE" mask="url(#mask-4)" points="30.0607143 57.3303908 32.0511905 57.3303908 32.0511905 47.3382529 30.0607143 47.3382529"></polygon>
                <path d="M38.2209429,55.646692 C38.8886571,55.646692 39.444181,55.1182092 39.444181,54.4480713 C39.444181,53.7761172 38.8886571,53.2340138 38.2209429,53.2340138 L35.7066095,53.2340138 L35.7066095,55.646692 L38.2209429,55.646692 Z M37.5948476,51.3071402 C38.1494667,51.3071402 38.7466095,50.8503931 38.7466095,50.1502897 C38.7466095,49.4510943 38.1494667,49.0234046 37.5948476,49.0234046 L35.663181,49.0234046 L35.663181,51.3071402 L37.5948476,51.3071402 Z M37.6798952,47.3526 C39.2876571,47.3526 40.5959429,48.6665425 40.5959429,50.2792322 C40.5959429,50.8930713 40.4113714,51.4497034 40.0847524,51.9200713 C40.8085619,52.4776115 41.2645619,53.3484276 41.2645619,54.3191287 C41.2645619,56.003554 39.9128476,57.345646 38.2489905,57.345646 L33.8998,57.345646 L33.8998,47.3526 L37.6798952,47.3526 Z" id="Fill-15" fill="#FEFEFE" mask="url(#mask-4)"></path>
                <polygon id="Fill-16" fill="#FEFEFE" mask="url(#mask-4)" points="47.4956571 47.3386161 52.2031333 57.3461908 49.9991333 57.3461908 47.1536571 51.2640989 44.0675143 57.3461908 41.8345619 57.3461908 46.9120857 47.3386161"></polygon>
                <polygon id="Fill-17" fill="#FEFEFE" mask="url(#mask-4)" points="61.2199905 57.3457368 55.6158952 51.5070011 55.6158952 57.3457368 53.6245143 57.3457368 53.6245143 47.3381621 54.2506095 47.3381621 59.755181 52.9344494 59.755181 47.3381621 61.7456571 47.3381621 61.7456571 57.3457368"></polygon>
                <path d="M70.6634429,49.7657322 C68.7281571,48.5089966 65.8130143,49.6794678 65.8130143,52.3627437 C65.8130143,55.1758701 68.9000619,56.3027552 70.7765381,54.8762149 L72.0567762,56.3463414 C71.1610619,57.0882149 70.0083952,57.5449621 68.7571095,57.5449621 C65.9125381,57.5449621 63.5945381,55.2185483 63.5945381,52.3627437 C63.5945381,49.5087552 65.9125381,47.1814333 68.7571095,47.1814333 C69.9523,47.1814333 71.0606333,47.5955023 71.9427762,48.280169 L70.6634429,49.7657322 Z" id="Fill-18" fill="#FEFEFE" mask="url(#mask-4)"></path>
                <path d="M74.7471762,52.3346851 C74.7471762,54.0617885 76.1405095,55.4610874 77.8613667,55.4610874 C79.5831286,55.4610874 80.9773667,54.0617885 80.9773667,52.3346851 C80.9773667,50.6075816 79.5831286,49.2091908 77.8613667,49.2091908 C76.1405095,49.2091908 74.7471762,50.6075816 74.7471762,52.3346851 M83.0248429,52.3346851 C83.0248429,55.1904897 80.7068429,57.5169034 77.8613667,57.5169034 C75.0167952,57.5169034 72.6987952,55.1904897 72.6987952,52.3346851 C72.6987952,49.4797885 75.0167952,47.1533747 77.8613667,47.1533747 C80.7068429,47.1533747 83.0248429,49.4797885 83.0248429,52.3346851" id="Fill-19" fill="#FEFEFE" mask="url(#mask-4)"></path>
            </g>
        </g>
    </g>
</svg>